<svg width="140px" height="70px" version="1.1" viewBox="0 0 329.71 227.42" xmlns="http://www.w3.org/2000/svg">
<circle cx="104.83" cy="125.39" r="88.294" fill="none" stroke="#000" stroke-width=".79375"/>
<g transform="translate(120.3)">
<g transform="matrix(0,1,1,0,-133.83,101.61)" fill-rule="evenodd">
<path d="m-101.61 133.83a98.871 98.871 0 0 0 29.29 70.178l69.862-69.862v-0.31523z" fill="#ff7058"/>
<path d="m-76.525 133.84a73.824 73.824 0 0 0 21.942 52.478l51.882-51.882v-0.59635z" fill="#f8b64c"/>
<path d="m-72.815 133.84a70.115 70.115 0 0 0 20.855 49.856l49.26-49.26v-0.59635z" fill="#ffd15c"/>
</g>
<g stroke-width=".26458">
<path d="m16.008 69.166c0-3.5941-3.0411-6.6352-6.6352-6.6352s-6.6352 3.0411-6.6352 6.6352c0 1.3822 1.6587 2.2117 3.5941 2.4881v6.3587h5.5293v-6.3587c2.4881-0.55298 4.1471-1.3824 4.1471-2.4881z" fill="#f2f2f2"/>
<g fill="#f8b64c">
<path d="m29.138 59.743a7.1879 7.1879 0 0 1-7.1879 7.1879 7.1879 7.1879 0 0 1-7.1879-7.1879 7.1879 7.1879 0 0 1 7.1879-7.1879 7.1879 7.1879 0 0 1 7.1879 7.1879z"/>
<path d="m17.499 37.797c-0.27649 1.106-1.3822 1.6587-2.4881 1.3824-3.8706-0.82947-7.7409 1.3822-8.8469 4.9763-0.27649 1.106-1.3822 1.6587-2.4881 1.3822-1.106-0.27649-1.6587-1.3822-1.3822-2.4881 1.6587-6.0822 8.0174-9.3999 14.1-7.7409 0.8292 0.27649 1.3822 1.3824 1.1057 2.4881z"/>
<path d="m37.047 60.368c-1.106-0.27649-1.9352-1.3822-1.6587-2.4881 0.55298-3.8706-1.9352-7.4644-5.8058-8.2939-1.106-0.27649-1.9352-1.106-1.6587-2.4881 0.27649-1.106 1.106-1.9352 2.4881-1.6587 6.0822 1.106 10.229 6.9114 9.3999 12.994-0.82973 1.3822-1.6592 2.2117-2.7649 1.9352z"/>
</g>
<path d="m29.861 37.119c-3.3176 0-6.0822 2.7646-6.0822 6.0822s2.7646 6.0822 6.0822 6.0822 6.0822-2.7646 6.0822-6.0822c0.27649-3.3176-2.4881-6.0822-6.0822-6.0822zm0 9.9528c-2.2117 0-3.8706-1.6587-3.8706-3.8706 0-2.2117 1.6587-3.8706 3.8706-3.8706s3.8706 1.6587 3.8706 3.8706c0 2.2117-1.6589 3.8706-3.8706 3.8706z" fill="#ff7058"/>
<path d="m17.359 80.994c-0.82947 0.82947-2.2117 0.55298-3.0411-0.27649-2.4881-3.0411-6.9114-3.3176-9.9526-0.82947-0.82947 0.82947-2.2117 0.55298-3.0411-0.27649-0.55298-0.82947-0.55298-2.2116 0.27649-2.7646 4.6998-4.1468 11.888-3.3176 16.035 1.3822 0.55298 0.82973 0.55298 1.9357-0.27649 2.7649z" fill="#f8b64c"/>
<path d="m19.75 49.006a6.0822 6.0822 0 0 1-6.0822 6.0822 6.0822 6.0822 0 0 1-6.0822-6.0822 6.0822 6.0822 0 0 1 6.0822-6.0822 6.0822 6.0822 0 0 1 6.0822 6.0822z" fill="#ff7058"/>
</g>
</g>
<g transform="matrix(1 0 0 -1 106.99 227.42)">
<g transform="matrix(0,1,1,0,-133.83,101.61)" fill-rule="evenodd">
<path d="m-101.61 133.83a98.871 98.871 0 0 0 29.29 70.178l69.862-69.862v-0.31523z" fill="#ff7058"/>
<path d="m-76.525 133.84a73.824 73.824 0 0 0 21.942 52.478l51.882-51.882v-0.59635z" fill="#f8b64c"/>
<path d="m-72.815 133.84a70.115 70.115 0 0 0 20.855 49.856l49.26-49.26v-0.59635z" fill="#ffd15c"/>
</g>
<g stroke-width=".26458">
<path d="m16.008 69.166c0-3.5941-3.0411-6.6352-6.6352-6.6352s-6.6352 3.0411-6.6352 6.6352c0 1.3822 1.6587 2.2117 3.5941 2.4881v6.3587h5.5293v-6.3587c2.4881-0.55298 4.1471-1.3824 4.1471-2.4881z" fill="#f2f2f2"/>
<g fill="#f8b64c">
<path d="m29.138 59.743a7.1879 7.1879 0 0 1-7.1879 7.1879 7.1879 7.1879 0 0 1-7.1879-7.1879 7.1879 7.1879 0 0 1 7.1879-7.1879 7.1879 7.1879 0 0 1 7.1879 7.1879z"/>
<path d="m17.499 37.797c-0.27649 1.106-1.3822 1.6587-2.4881 1.3824-3.8706-0.82947-7.7409 1.3822-8.8469 4.9763-0.27649 1.106-1.3822 1.6587-2.4881 1.3822-1.106-0.27649-1.6587-1.3822-1.3822-2.4881 1.6587-6.0822 8.0174-9.3999 14.1-7.7409 0.8292 0.27649 1.3822 1.3824 1.1057 2.4881z"/>
<path d="m37.047 60.368c-1.106-0.27649-1.9352-1.3822-1.6587-2.4881 0.55298-3.8706-1.9352-7.4644-5.8058-8.2939-1.106-0.27649-1.9352-1.106-1.6587-2.4881 0.27649-1.106 1.106-1.9352 2.4881-1.6587 6.0822 1.106 10.229 6.9114 9.3999 12.994-0.82973 1.3822-1.6592 2.2117-2.7649 1.9352z"/>
</g>
<path d="m29.861 37.119c-3.3176 0-6.0822 2.7646-6.0822 6.0822s2.7646 6.0822 6.0822 6.0822 6.0822-2.7646 6.0822-6.0822c0.27649-3.3176-2.4881-6.0822-6.0822-6.0822zm0 9.9528c-2.2117 0-3.8706-1.6587-3.8706-3.8706 0-2.2117 1.6587-3.8706 3.8706-3.8706s3.8706 1.6587 3.8706 3.8706c0 2.2117-1.6589 3.8706-3.8706 3.8706z" fill="#ff7058"/>
<path d="m17.359 80.994c-0.82947 0.82947-2.2117 0.55298-3.0411-0.27649-2.4881-3.0411-6.9114-3.3176-9.9526-0.82947-0.82947 0.82947-2.2117 0.55298-3.0411-0.27649-0.55298-0.82947-0.55298-2.2116 0.27649-2.7646 4.6998-4.1468 11.888-3.3176 16.035 1.3822 0.55298 0.82973 0.55298 1.9357-0.27649 2.7649z" fill="#f8b64c"/>
<path d="m19.75 49.006a6.0822 6.0822 0 0 1-6.0822 6.0822 6.0822 6.0822 0 0 1-6.0822-6.0822 6.0822 6.0822 0 0 1 6.0822-6.0822 6.0822 6.0822 0 0 1 6.0822 6.0822z" fill="#ff7058"/>
</g>
</g>
<g transform="matrix(0 -1 -1 0 224.61 114.41)">
<g transform="matrix(0,1,1,0,-133.83,101.61)" fill-rule="evenodd">
<path d="m-101.61 133.83a98.871 98.871 0 0 0 29.29 70.178l69.862-69.862v-0.31523z" fill="#ff7058"/>
<path d="m-76.525 133.84a73.824 73.824 0 0 0 21.942 52.478l51.882-51.882v-0.59635z" fill="#f8b64c"/>
<path d="m-72.815 133.84a70.115 70.115 0 0 0 20.855 49.856l49.26-49.26v-0.59635z" fill="#ffd15c"/>
</g>
<g stroke-width=".26458">
<path d="m16.008 69.166c0-3.5941-3.0411-6.6352-6.6352-6.6352s-6.6352 3.0411-6.6352 6.6352c0 1.3822 1.6587 2.2117 3.5941 2.4881v6.3587h5.5293v-6.3587c2.4881-0.55298 4.1471-1.3824 4.1471-2.4881z" fill="#f2f2f2"/>
<g fill="#f8b64c">
<path d="m29.138 59.743a7.1879 7.1879 0 0 1-7.1879 7.1879 7.1879 7.1879 0 0 1-7.1879-7.1879 7.1879 7.1879 0 0 1 7.1879-7.1879 7.1879 7.1879 0 0 1 7.1879 7.1879z"/>
<path d="m17.499 37.797c-0.27649 1.106-1.3822 1.6587-2.4881 1.3824-3.8706-0.82947-7.7409 1.3822-8.8469 4.9763-0.27649 1.106-1.3822 1.6587-2.4881 1.3822-1.106-0.27649-1.6587-1.3822-1.3822-2.4881 1.6587-6.0822 8.0174-9.3999 14.1-7.7409 0.8292 0.27649 1.3822 1.3824 1.1057 2.4881z"/>
<path d="m37.047 60.368c-1.106-0.27649-1.9352-1.3822-1.6587-2.4881 0.55298-3.8706-1.9352-7.4644-5.8058-8.2939-1.106-0.27649-1.9352-1.106-1.6587-2.4881 0.27649-1.106 1.106-1.9352 2.4881-1.6587 6.0822 1.106 10.229 6.9114 9.3999 12.994-0.82973 1.3822-1.6592 2.2117-2.7649 1.9352z"/>
</g>
<path d="m29.861 37.119c-3.3176 0-6.0822 2.7646-6.0822 6.0822s2.7646 6.0822 6.0822 6.0822 6.0822-2.7646 6.0822-6.0822c0.27649-3.3176-2.4881-6.0822-6.0822-6.0822zm0 9.9528c-2.2117 0-3.8706-1.6587-3.8706-3.8706 0-2.2117 1.6587-3.8706 3.8706-3.8706s3.8706 1.6587 3.8706 3.8706c0 2.2117-1.6589 3.8706-3.8706 3.8706z" fill="#ff7058"/>
<path d="m17.359 80.994c-0.82947 0.82947-2.2117 0.55298-3.0411-0.27649-2.4881-3.0411-6.9114-3.3176-9.9526-0.82947-0.82947 0.82947-2.2117 0.55298-3.0411-0.27649-0.55298-0.82947-0.55298-2.2116 0.27649-2.7646 4.6998-4.1468 11.888-3.3176 16.035 1.3822 0.55298 0.82973 0.55298 1.9357-0.27649 2.7649z" fill="#f8b64c"/>
<path d="m19.75 49.006a6.0822 6.0822 0 0 1-6.0822 6.0822 6.0822 6.0822 0 0 1-6.0822-6.0822 6.0822 6.0822 0 0 1 6.0822-6.0822 6.0822 6.0822 0 0 1 6.0822 6.0822z" fill="#ff7058"/>
</g>
</g>
<g transform="rotate(90 41.694 167.04)">
<g transform="matrix(0,1,1,0,-133.83,101.61)" fill-rule="evenodd">
<path d="m-101.61 133.83a98.871 98.871 0 0 0 29.29 70.178l69.862-69.862v-0.31523z" fill="#ff7058"/>
<path d="m-76.525 133.84a73.824 73.824 0 0 0 21.942 52.478l51.882-51.882v-0.59635z" fill="#f8b64c"/>
<path d="m-72.815 133.84a70.115 70.115 0 0 0 20.855 49.856l49.26-49.26v-0.59635z" fill="#ffd15c"/>
</g>
<g stroke-width=".26458">
<path d="m16.008 69.166c0-3.5941-3.0411-6.6352-6.6352-6.6352s-6.6352 3.0411-6.6352 6.6352c0 1.3822 1.6587 2.2117 3.5941 2.4881v6.3587h5.5293v-6.3587c2.4881-0.55298 4.1471-1.3824 4.1471-2.4881z" fill="#f2f2f2"/>
<g fill="#f8b64c">
<path d="m29.138 59.743a7.1879 7.1879 0 0 1-7.1879 7.1879 7.1879 7.1879 0 0 1-7.1879-7.1879 7.1879 7.1879 0 0 1 7.1879-7.1879 7.1879 7.1879 0 0 1 7.1879 7.1879z"/>
<path d="m17.499 37.797c-0.27649 1.106-1.3822 1.6587-2.4881 1.3824-3.8706-0.82947-7.7409 1.3822-8.8469 4.9763-0.27649 1.106-1.3822 1.6587-2.4881 1.3822-1.106-0.27649-1.6587-1.3822-1.3822-2.4881 1.6587-6.0822 8.0174-9.3999 14.1-7.7409 0.8292 0.27649 1.3822 1.3824 1.1057 2.4881z"/>
<path d="m37.047 60.368c-1.106-0.27649-1.9352-1.3822-1.6587-2.4881 0.55298-3.8706-1.9352-7.4644-5.8058-8.2939-1.106-0.27649-1.9352-1.106-1.6587-2.4881 0.27649-1.106 1.106-1.9352 2.4881-1.6587 6.0822 1.106 10.229 6.9114 9.3999 12.994-0.82973 1.3822-1.6592 2.2117-2.7649 1.9352z"/>
</g>
<path d="m29.861 37.119c-3.3176 0-6.0822 2.7646-6.0822 6.0822s2.7646 6.0822 6.0822 6.0822 6.0822-2.7646 6.0822-6.0822c0.27649-3.3176-2.4881-6.0822-6.0822-6.0822zm0 9.9528c-2.2117 0-3.8706-1.6587-3.8706-3.8706 0-2.2117 1.6587-3.8706 3.8706-3.8706s3.8706 1.6587 3.8706 3.8706c0 2.2117-1.6589 3.8706-3.8706 3.8706z" fill="#ff7058"/>
<path d="m17.359 80.994c-0.82947 0.82947-2.2117 0.55298-3.0411-0.27649-2.4881-3.0411-6.9114-3.3176-9.9526-0.82947-0.82947 0.82947-2.2117 0.55298-3.0411-0.27649-0.55298-0.82947-0.55298-2.2116 0.27649-2.7646 4.6998-4.1468 11.888-3.3176 16.035 1.3822 0.55298 0.82973 0.55298 1.9357-0.27649 2.7649z" fill="#f8b64c"/>
<path d="m19.75 49.006a6.0822 6.0822 0 0 1-6.0822 6.0822 6.0822 6.0822 0 0 1-6.0822-6.0822 6.0822 6.0822 0 0 1 6.0822-6.0822 6.0822 6.0822 0 0 1 6.0822 6.0822z" fill="#ff7058"/>
</g>
</g>
<g transform="rotate(-90 60.509 59.681)">
<g transform="matrix(0,1,1,0,-133.83,101.61)" fill-rule="evenodd">
<path d="m-101.61 133.83a98.871 98.871 0 0 0 29.29 70.178l69.862-69.862v-0.31523z" fill="#ff7058"/>
<path d="m-76.525 133.84a73.824 73.824 0 0 0 21.942 52.478l51.882-51.882v-0.59635z" fill="#f8b64c"/>
<path d="m-72.815 133.84a70.115 70.115 0 0 0 20.855 49.856l49.26-49.26v-0.59635z" fill="#ffd15c"/>
</g>
<g stroke-width=".26458">
<path d="m16.008 69.166c0-3.5941-3.0411-6.6352-6.6352-6.6352s-6.6352 3.0411-6.6352 6.6352c0 1.3822 1.6587 2.2117 3.5941 2.4881v6.3587h5.5293v-6.3587c2.4881-0.55298 4.1471-1.3824 4.1471-2.4881z" fill="#f2f2f2"/>
<g fill="#f8b64c">
<path d="m29.138 59.743a7.1879 7.1879 0 0 1-7.1879 7.1879 7.1879 7.1879 0 0 1-7.1879-7.1879 7.1879 7.1879 0 0 1 7.1879-7.1879 7.1879 7.1879 0 0 1 7.1879 7.1879z"/>
<path d="m17.499 37.797c-0.27649 1.106-1.3822 1.6587-2.4881 1.3824-3.8706-0.82947-7.7409 1.3822-8.8469 4.9763-0.27649 1.106-1.3822 1.6587-2.4881 1.3822-1.106-0.27649-1.6587-1.3822-1.3822-2.4881 1.6587-6.0822 8.0174-9.3999 14.1-7.7409 0.8292 0.27649 1.3822 1.3824 1.1057 2.4881z"/>
<path d="m37.047 60.368c-1.106-0.27649-1.9352-1.3822-1.6587-2.4881 0.55298-3.8706-1.9352-7.4644-5.8058-8.2939-1.106-0.27649-1.9352-1.106-1.6587-2.4881 0.27649-1.106 1.106-1.9352 2.4881-1.6587 6.0822 1.106 10.229 6.9114 9.3999 12.994-0.82973 1.3822-1.6592 2.2117-2.7649 1.9352z"/>
</g>
<path d="m29.861 37.119c-3.3176 0-6.0822 2.7646-6.0822 6.0822s2.7646 6.0822 6.0822 6.0822 6.0822-2.7646 6.0822-6.0822c0.27649-3.3176-2.4881-6.0822-6.0822-6.0822zm0 9.9528c-2.2117 0-3.8706-1.6587-3.8706-3.8706 0-2.2117 1.6587-3.8706 3.8706-3.8706s3.8706 1.6587 3.8706 3.8706c0 2.2117-1.6589 3.8706-3.8706 3.8706z" fill="#ff7058"/>
<path d="m17.359 80.994c-0.82947 0.82947-2.2117 0.55298-3.0411-0.27649-2.4881-3.0411-6.9114-3.3176-9.9526-0.82947-0.82947 0.82947-2.2117 0.55298-3.0411-0.27649-0.55298-0.82947-0.55298-2.2116 0.27649-2.7646 4.6998-4.1468 11.888-3.3176 16.035 1.3822 0.55298 0.82973 0.55298 1.9357-0.27649 2.7649z" fill="#f8b64c"/>
<path d="m19.75 49.006a6.0822 6.0822 0 0 1-6.0822 6.0822 6.0822 6.0822 0 0 1-6.0822-6.0822 6.0822 6.0822 0 0 1 6.0822-6.0822 6.0822 6.0822 0 0 1 6.0822 6.0822z" fill="#ff7058"/>
</g>
</g>
<g transform="matrix(0 1 1 0 0 124.6)">
<g transform="matrix(0,1,1,0,-133.83,101.61)" fill-rule="evenodd">
<path d="m-101.61 133.83a98.871 98.871 0 0 0 29.29 70.178l69.862-69.862v-0.31523z" fill="#ff7058"/>
<path d="m-76.525 133.84a73.824 73.824 0 0 0 21.942 52.478l51.882-51.882v-0.59635z" fill="#f8b64c"/>
<path d="m-72.815 133.84a70.115 70.115 0 0 0 20.855 49.856l49.26-49.26v-0.59635z" fill="#ffd15c"/>
</g>
<g stroke-width=".26458">
<path d="m16.008 69.166c0-3.5941-3.0411-6.6352-6.6352-6.6352s-6.6352 3.0411-6.6352 6.6352c0 1.3822 1.6587 2.2117 3.5941 2.4881v6.3587h5.5293v-6.3587c2.4881-0.55298 4.1471-1.3824 4.1471-2.4881z" fill="#f2f2f2"/>
<g fill="#f8b64c">
<path d="m29.138 59.743a7.1879 7.1879 0 0 1-7.1879 7.1879 7.1879 7.1879 0 0 1-7.1879-7.1879 7.1879 7.1879 0 0 1 7.1879-7.1879 7.1879 7.1879 0 0 1 7.1879 7.1879z"/>
<path d="m17.499 37.797c-0.27649 1.106-1.3822 1.6587-2.4881 1.3824-3.8706-0.82947-7.7409 1.3822-8.8469 4.9763-0.27649 1.106-1.3822 1.6587-2.4881 1.3822-1.106-0.27649-1.6587-1.3822-1.3822-2.4881 1.6587-6.0822 8.0174-9.3999 14.1-7.7409 0.8292 0.27649 1.3822 1.3824 1.1057 2.4881z"/>
<path d="m37.047 60.368c-1.106-0.27649-1.9352-1.3822-1.6587-2.4881 0.55298-3.8706-1.9352-7.4644-5.8058-8.2939-1.106-0.27649-1.9352-1.106-1.6587-2.4881 0.27649-1.106 1.106-1.9352 2.4881-1.6587 6.0822 1.106 10.229 6.9114 9.3999 12.994-0.82973 1.3822-1.6592 2.2117-2.7649 1.9352z"/>
</g>
<path d="m29.861 37.119c-3.3176 0-6.0822 2.7646-6.0822 6.0822s2.7646 6.0822 6.0822 6.0822 6.0822-2.7646 6.0822-6.0822c0.27649-3.3176-2.4881-6.0822-6.0822-6.0822zm0 9.9528c-2.2117 0-3.8706-1.6587-3.8706-3.8706 0-2.2117 1.6587-3.8706 3.8706-3.8706s3.8706 1.6587 3.8706 3.8706c0 2.2117-1.6589 3.8706-3.8706 3.8706z" fill="#ff7058"/>
<path d="m17.359 80.994c-0.82947 0.82947-2.2117 0.55298-3.0411-0.27649-2.4881-3.0411-6.9114-3.3176-9.9526-0.82947-0.82947 0.82947-2.2117 0.55298-3.0411-0.27649-0.55298-0.82947-0.55298-2.2116 0.27649-2.7646 4.6998-4.1468 11.888-3.3176 16.035 1.3822 0.55298 0.82973 0.55298 1.9357-0.27649 2.7649z" fill="#f8b64c"/>
<path d="m19.75 49.006a6.0822 6.0822 0 0 1-6.0822 6.0822 6.0822 6.0822 0 0 1-6.0822-6.0822 6.0822 6.0822 0 0 1 6.0822-6.0822 6.0822 6.0822 0 0 1 6.0822 6.0822z" fill="#ff7058"/>
</g>
</g>
<g transform="matrix(-1 0 0 1 103.54 18.063)">
<g transform="matrix(0,1,1,0,-133.83,101.61)" fill-rule="evenodd">
<path d="m-101.61 133.83a98.871 98.871 0 0 0 29.29 70.178l69.862-69.862v-0.31523z" fill="#ff7058"/>
<path d="m-76.525 133.84a73.824 73.824 0 0 0 21.942 52.478l51.882-51.882v-0.59635z" fill="#f8b64c"/>
<path d="m-72.815 133.84a70.115 70.115 0 0 0 20.855 49.856l49.26-49.26v-0.59635z" fill="#ffd15c"/>
</g>
<g stroke-width=".26458">
<path d="m16.008 69.166c0-3.5941-3.0411-6.6352-6.6352-6.6352s-6.6352 3.0411-6.6352 6.6352c0 1.3822 1.6587 2.2117 3.5941 2.4881v6.3587h5.5293v-6.3587c2.4881-0.55298 4.1471-1.3824 4.1471-2.4881z" fill="#f2f2f2"/>
<g fill="#f8b64c">
<path d="m29.138 59.743a7.1879 7.1879 0 0 1-7.1879 7.1879 7.1879 7.1879 0 0 1-7.1879-7.1879 7.1879 7.1879 0 0 1 7.1879-7.1879 7.1879 7.1879 0 0 1 7.1879 7.1879z"/>
<path d="m17.499 37.797c-0.27649 1.106-1.3822 1.6587-2.4881 1.3824-3.8706-0.82947-7.7409 1.3822-8.8469 4.9763-0.27649 1.106-1.3822 1.6587-2.4881 1.3822-1.106-0.27649-1.6587-1.3822-1.3822-2.4881 1.6587-6.0822 8.0174-9.3999 14.1-7.7409 0.8292 0.27649 1.3822 1.3824 1.1057 2.4881z"/>
<path d="m37.047 60.368c-1.106-0.27649-1.9352-1.3822-1.6587-2.4881 0.55298-3.8706-1.9352-7.4644-5.8058-8.2939-1.106-0.27649-1.9352-1.106-1.6587-2.4881 0.27649-1.106 1.106-1.9352 2.4881-1.6587 6.0822 1.106 10.229 6.9114 9.3999 12.994-0.82973 1.3822-1.6592 2.2117-2.7649 1.9352z"/>
</g>
<path d="m29.861 37.119c-3.3176 0-6.0822 2.7646-6.0822 6.0822s2.7646 6.0822 6.0822 6.0822 6.0822-2.7646 6.0822-6.0822c0.27649-3.3176-2.4881-6.0822-6.0822-6.0822zm0 9.9528c-2.2117 0-3.8706-1.6587-3.8706-3.8706 0-2.2117 1.6587-3.8706 3.8706-3.8706s3.8706 1.6587 3.8706 3.8706c0 2.2117-1.6589 3.8706-3.8706 3.8706z" fill="#ff7058"/>
<path d="m17.359 80.994c-0.82947 0.82947-2.2117 0.55298-3.0411-0.27649-2.4881-3.0411-6.9114-3.3176-9.9526-0.82947-0.82947 0.82947-2.2117 0.55298-3.0411-0.27649-0.55298-0.82947-0.55298-2.2116 0.27649-2.7646 4.6998-4.1468 11.888-3.3176 16.035 1.3822 0.55298 0.82973 0.55298 1.9357-0.27649 2.7649z" fill="#f8b64c"/>
<path d="m19.75 49.006a6.0822 6.0822 0 0 1-6.0822 6.0822 6.0822 6.0822 0 0 1-6.0822-6.0822 6.0822 6.0822 0 0 1 6.0822-6.0822 6.0822 6.0822 0 0 1 6.0822 6.0822z" fill="#ff7058"/>
</g>
</g>
<g transform="rotate(180 50.848 113.71)">
<g transform="matrix(0,1,1,0,-133.83,101.61)" fill-rule="evenodd">
<path d="m-101.61 133.83a98.871 98.871 0 0 0 29.29 70.178l69.862-69.862v-0.31523z" fill="#ff7058"/>
<path d="m-76.525 133.84a73.824 73.824 0 0 0 21.942 52.478l51.882-51.882v-0.59635z" fill="#f8b64c"/>
<path d="m-72.815 133.84a70.115 70.115 0 0 0 20.855 49.856l49.26-49.26v-0.59635z" fill="#ffd15c"/>
</g>
<g stroke-width=".26458">
<path d="m16.008 69.166c0-3.5941-3.0411-6.6352-6.6352-6.6352s-6.6352 3.0411-6.6352 6.6352c0 1.3822 1.6587 2.2117 3.5941 2.4881v6.3587h5.5293v-6.3587c2.4881-0.55298 4.1471-1.3824 4.1471-2.4881z" fill="#f2f2f2"/>
<g fill="#f8b64c">
<path d="m29.138 59.743a7.1879 7.1879 0 0 1-7.1879 7.1879 7.1879 7.1879 0 0 1-7.1879-7.1879 7.1879 7.1879 0 0 1 7.1879-7.1879 7.1879 7.1879 0 0 1 7.1879 7.1879z"/>
<path d="m17.499 37.797c-0.27649 1.106-1.3822 1.6587-2.4881 1.3824-3.8706-0.82947-7.7409 1.3822-8.8469 4.9763-0.27649 1.106-1.3822 1.6587-2.4881 1.3822-1.106-0.27649-1.6587-1.3822-1.3822-2.4881 1.6587-6.0822 8.0174-9.3999 14.1-7.7409 0.8292 0.27649 1.3822 1.3824 1.1057 2.4881z"/>
<path d="m37.047 60.368c-1.106-0.27649-1.9352-1.3822-1.6587-2.4881 0.55298-3.8706-1.9352-7.4644-5.8058-8.2939-1.106-0.27649-1.9352-1.106-1.6587-2.4881 0.27649-1.106 1.106-1.9352 2.4881-1.6587 6.0822 1.106 10.229 6.9114 9.3999 12.994-0.82973 1.3822-1.6592 2.2117-2.7649 1.9352z"/>
</g>
<path d="m29.861 37.119c-3.3176 0-6.0822 2.7646-6.0822 6.0822s2.7646 6.0822 6.0822 6.0822 6.0822-2.7646 6.0822-6.0822c0.27649-3.3176-2.4881-6.0822-6.0822-6.0822zm0 9.9528c-2.2117 0-3.8706-1.6587-3.8706-3.8706 0-2.2117 1.6587-3.8706 3.8706-3.8706s3.8706 1.6587 3.8706 3.8706c0 2.2117-1.6589 3.8706-3.8706 3.8706z" fill="#ff7058"/>
<path d="m17.359 80.994c-0.82947 0.82947-2.2117 0.55298-3.0411-0.27649-2.4881-3.0411-6.9114-3.3176-9.9526-0.82947-0.82947 0.82947-2.2117 0.55298-3.0411-0.27649-0.55298-0.82947-0.55298-2.2116 0.27649-2.7646 4.6998-4.1468 11.888-3.3176 16.035 1.3822 0.55298 0.82973 0.55298 1.9357-0.27649 2.7649z" fill="#f8b64c"/>
<path d="m19.75 49.006a6.0822 6.0822 0 0 1-6.0822 6.0822 6.0822 6.0822 0 0 1-6.0822-6.0822 6.0822 6.0822 0 0 1 6.0822-6.0822 6.0822 6.0822 0 0 1 6.0822 6.0822z" fill="#ff7058"/>
</g>
</g>
<path d="m7.249 167.4c-11.602-6.844-4.7978-25.296 7.5322-20.794 5.5166 2.0144 5.7587 1.8301 22.438-16.938 5.6328-6.3384 13.012-14.533 16.439-18.257l6.162-6.6964-5.9624-3.8594c-11.341-7.341-15.54-13.955-12.916-20.455 3.0164-7.4694 5.6649-5.919 8.2519 4.7591 1.9018 7.8509 8.1745 14.129 14.177 14.265 0.95753 0.0217 4.1354-2.4987 7.0464-5.5818 9.3578-9.9111 11.711-12.272 20.038-20.11 11.539-10.863 20.17-16.022 26.369-15.88 6.9043 0.15791 7.1831 2.4152 0.98813 8.0012-2.753 2.4826-4.9772 4.7609-4.9261 5.0478 0.0511 0.28684-2.7631 2.3125-6.2795 4.5176-3.5452 2.2231-6.3759 4.5677-6.2638 5.1934 0.11206 0.62569-2.4387 3.5408-5.6909 6.4984-3.2771 2.9804-8.1227 7.6686-10.76 10.413l-4.8366 5.0331 10.099 2.3777c7.3589 1.7326 13.97 2.1821 25.487 1.7656 16.397-0.59303 35.605-3.5935 35.281-5.4349-0.11174-0.6348 1.2733-1.1187 3.0711-1.0754 1.7906 0.0431 3.1612-0.42917 3.0523-1.0494-0.1089-0.62026 2.0867-1.4101 4.8629-1.7531 6.4333-0.79492 22.685-12.41 27.804-19.741 5.0032-7.1653 6.2064-17.816 2.5548-22.389-1.9867-2.4879-4.9647-3.8961-11.303-5.3252-8.4512-1.9054-14.107-1.901-49.011 0.14777-2.4432 0.14356-12.486 1.9754-22.506 4.1131-14.455 3.0842-19.345 4.8972-21.179 7.9081-1.3118 2.1526-3.8723 3.8329-5.6924 3.7272-5.0437-0.29289-8.0128-5.6422-5.4241-9.812 3.501-5.6395 48.638-14.881 74.916-15.733 11.106-0.36011 36.923 2.8998 41.961 5.2158 9.1419 4.2027 12.55 10.142 11.879 20.565-0.75356 11.692-6.88 20.311-21.146 29.434-19.292 12.337-41.327 18.158-68.092 17.394-18.613-0.53118-26.216-1.1771-28.792-2.4783-1.0444-0.52748-4.376-0.99103-7.4197-1.0296-4.0474-0.0513-7.1629 1.796-11.375 6.7762-3.2192 3.8058-7.1561 7.7449-8.7315 8.7305-1.5808 0.98904-6.1271 5.9599-10.132 11.086-21.909 28.047-25.93 32.354-31.273 33.331-3.7379 0.68419-7.4006 0.0353-10.694-1.9074l4.5e-4 -2e-5" fill="#fff" stroke-width="1.1198"/>
<path d="m118.98 192.32c-8.7761-0.73972-10.612-1.3798-11.173-3.9738-1.3895-6.4114 15.627-17.006 44.586-28.397 17.536-6.8978 32.83-11.971 45.064-15.069 6.9571-1.7617 9.2934-3.8907 9.0582-8.1667-0.19196-3.5321-1.4903-3.9263-6.8966-2.0127-2.6543 0.93948-5.2695 2.0899-5.7772 2.5448-1.0709 0.95959-7.9392 0.213-8.043-0.90233-0.0363-0.39008-3.2067 0.27881-7.1176 1.5099-3.993 1.2568-8.6434 2.4521-10.271 2.6336-1.6423 0.18253-3.9553 0.98234-5.1319 1.7781-5.9506 4.0243-25.576 4.6794-31.476 0.70925-4.8741-3.2799-6.7152-2.752-31.148 9.2717-4.6188 2.2729-9.28 4.2652-10.284 4.3893-1.0092 0.12473-3.7017-0.98942-6.0081-2.4947-4.8222-3.1472-6.2203-2.3229 18.989-11.404 24.631-8.8723 43.523-17.674 43.199-19.899-0.0952-0.65252 1.8752-1.775 4.3517-2.4856 2.4472-0.70217 5.341-1.9043 6.4523-2.6756 2.2616-1.5699 5.5789-1.0903 8.7549 1.218 1.7092 1.2422 1.0161 2.1308-3.7351 4.7701-15.154 8.4178-21.795 14.669-17.211 16.382 4.3865 1.6383 20.008-1.2479 33.129-5.9155 5.8284-2.0733 10.876-3.5708 11.372-3.384 1.8952 0.71367 11.9-2.9185 16.293-5.8548 2.4918-1.6655 5.3735-3.5265 6.4254-4.1506 2.9573-1.7544 0.80537-1.9722-4.0816-0.38484-5.27 1.7118-11.696 1.0819-10.239-1.0793 0.45085-0.66917 0.79746-1.5232 0.77015-1.899-0.0662-0.91063 11.16-4.707 18.479-6.2957 4.988-1.0827 5.9788-1.0999 8.6067-0.17737 2.1853 0.76721 2.7217 1.4738 2.1589 2.8215-0.875 2.0952-6.2448 7.293-10.052 9.7025-5.2935 3.3504-6.902 5.2499-5.1734 6.137 1.7327 0.88925 2.8974 3.0879 3.2065 6.0108 0.10737 1.0161 1.0723 1.9182 2.1373 2.0071 1.0572 0.0882 6.7337-0.88638 12.429-2.1236 9.5631-2.0774 9.7689-2.1622 7.25-2.9467-4.2901-1.3362-2.8947-3.7826 3.4456-6.078 5.9034-2.1372 5.9463-2.1603 11.641-6.2204 4.6802-3.3369 4.5932-4.1013-0.2871-2.3291-3.9644 1.4396-8.6496 0.85063-7.4825-0.99708 0.36174-0.57233 0.65492-1.3042 0.65235-1.6272-6e-3 -0.78264 8.4287-3.9982 13.928-5.3436 3.7668-0.92152 4.5082-0.93361 6.4356-0.12567 1.6067 0.67353 1.9792 1.2896 1.4978 2.4589-0.74835 1.8177-5.0011 6.3036-7.9513 8.3678-4.7548 3.3268-5.1244 4.0664-3.2064 6.4356 0.96158 1.1878 2.2191 1.9936 2.8017 1.8028 0.58031-0.1901 3.6947-0.95658 6.8564-1.6888l5.5691-1.2897 3.6502-4.7529c3.7443-4.8753 11.056-10.697 16.151-12.947 5.3715-2.3716 10.08-1.3961 9.9072 1.8944-0.16674 3.1696-8.0922 9.4111-16.905 13.15-6.8044 2.8868-8.4742 4.0387-6.6153 4.6014 1.5229 0.46098 6.7195-0.15592 7.3404-0.85272 0.24879-0.27923 1.6402-0.63282 3.0765-0.78437 1.4193-0.1503 4.5488-0.93359 6.929-1.7299 2.3369-0.78179 4.7432-1.4658 5.3826-1.5325 1.3798-0.14388 17.256-12.074 17.375-13.005 0.0469-0.3579 1.1391-2.1548 2.423-3.9833 1.6609-2.3654 2.702-3.3418 3.6723-3.4534 2.1898-0.25206 2.6353 1.3922 1.018 3.6603-1.3571 1.9032-1.8794 3.1898-1.023 2.521 0.59552-0.46516 3.0002 1.5131 2.9112 2.377-0.0903 0.87631-4.1986 7.0678-5.274 7.9396-0.44878 0.3638-1.4018 1.7116-2.118 2.9967-1.264 2.268-1.2707 2.362-0.21008 2.8798 1.3803 0.67383 2.4875 0.53942 5.6747-0.66597 2.8856-1.0914 4.6382-1.3636 4.5688-0.72385-0.0632 0.58285-3.2166 2.1738-4.6576 2.339-0.62878 0.0721-1.2572 0.35486-1.3929 0.62809-0.13581 0.27334-1.6608 0.7952-3.4148 1.165-2.6774 0.56457-3.4818 0.55592-4.4983-0.062-1.8078-1.0988-0.82849-4.5425 2.839-9.9516 1.5928-2.3491 2.9084-4.4757 2.9337-4.7408 0.0902-0.9429-1.3264-0.39517-3.3024 1.2895-1.1135 0.94934-5.6185 4.6355-10.123 8.2822-8.4926 6.8745-10.763 8.039-9.6916 4.8764l0.50864-1.5006-4.3222 2.2171c-4.5461 2.3319-6.7929 2.9417-17.292 4.6169-6.6018 1.0534-8.3768 1.451-15.224 3.4352-4.9835 1.4442-5.3891 1.7533-7.9476 6.1093-1.0659 1.8148-4.7719 6.1989-8.2848 9.7909-4.8728 4.9825-8.2984 7.7151-13.63 10.833-11.506 6.7284-20.361 10.664-30.577 13.439l-9.5906 2.6051-14.726-2.4047-10.92 4.804c-7.9015 3.476-15.356 6.0854-24.091 8.3882-13.183 3.4754-13.539 3.5184-23.324 2.6936l7.9e-4 -1.1e-4m42.723-14.489c10.902-4.5669 15.833-7.5434 30.144-18.058 6.2431-4.5866 12.275-10.557 12.176-12.012-0.068-0.99363-7.8424 1.0266-11.843 3.113-2.0055 1.0458-5.1922 2.1466-7.0816 2.4395-1.9104 0.2972-4.9008 1.2542-6.6392 2.1329-1.7535 0.8863-4.8045 1.8685-6.7862 2.1789-8.6216 1.3509-40.44 16.43-44.553 21.414-5.8888 7.1345-5.9004 8.0646-0.13869 7.7181 10.353-0.62263 22.504-3.8091 34.723-8.9273m54.518-11.248c10.335-4.6671 22.111-12.982 27.933-19.534 2.2651-2.5493 4.1003-4.9312 4.0985-5.3163-5e-3 -0.99666-5.5519 0.45449-8.8549 2.3466-1.5159 0.86835-3.7163 1.7251-4.8862 1.8983-1.1792 0.17452-3.694 0.97527-5.5992 1.7865-1.9271 0.82057-5.0142 1.8864-6.8593 2.3648-5.3153 1.3784-19.699 8.906-22.857 12.051-1.5754 1.5693-4.4229 3.9157-6.3343 5.2157-5.5199 3.7542-6.1968 6.0263-1.7627 5.8954 7.2962-0.21534 15.975-2.5774 25.122-6.708m20.04-25.352c11.832-3.6232 13.063-4.1196 13.059-5.2202-3e-3 -0.81561-0.78515-0.84252-4.1582-0.13019-2.3364 0.49339-5.8464 1.2131-7.7886 1.5967-9.7444 1.9243-20.509 4.8709-21.911 6.0504-0.60711 0.51067-2.0193 2.3747-3.1398 4.1459l-2.0462 3.2344 8.952-3.623c4.7326-1.9154 12.401-4.6357 17.033-6.054m32.195-9.9068c3.545-0.71293 3.9408-0.94103 3.4433-1.9697-0.31144-0.64427-0.65447-1.2314-0.76099-1.3022-0.24313-0.16164-10.925 3.1664-12.432 3.8839-1.7067 0.81242 1.2377 1.4097 3.6414 0.75632 1.0917-0.29671 3.8524-0.91472 6.108-1.3683m-19.427-0.14877c1.4179-0.17245 1.8616-1.404 0.7066-1.9618-0.88157-0.42569-8.3459 2.356-8.3348 3.1262 5e-3 0.33701 1.3983 0.24428 3.1594-0.20643 1.7052-0.43646 3.71-0.86578 4.4688-0.95802v-4e-5m37.533-12.689c7.3586-3.5625 12.255-8.3245 8.5183-8.2006-1.5147 0.0502-11.328 6.607-12.086 8.1126-0.36338 0.72258-1.2997 1.6747-2.0842 2.1173-3.2869 1.8547 0.32708 0.54833 5.6514-2.0293m-121.81-19.796c-4.3413-2.1387-3.3026-4.6352 1.8757-4.5148 4.7684 0.11081 8.1931 1.8936 8.4435 4.3299 0.26098 2.5395-5.259 2.6778-10.319 0.18488l2e-5 9e-5" fill="#fff" stroke-width="1.1198"/>
</svg>
